<svg fill="#5F327C" xmlns:dc="http://purl.org/dc/elements/1.1/" xmlns:cc="http://creativecommons.org/ns#" xmlns:rdf="http://www.w3.org/1999/02/22-rdf-syntax-ns#" xmlns:svg="http://www.w3.org/2000/svg" xmlns="http://www.w3.org/2000/svg" xmlns:sodipodi="http://sodipodi.sourceforge.net/DTD/sodipodi-0.dtd" xmlns:inkscape="http://www.inkscape.org/namespaces/inkscape" version="1.1" x="0px" y="0px" viewBox="0 0 100 100"><g transform="translate(0,-952.36218)"><path style="text-indent:0;text-transform:none;direction:ltr;block-progression:tb;baseline-shift:baseline;color:#000000;enable-background:accumulate;" d="m 61,956.36219 c -6.0396,0 -11,4.9604 -11,11 0,3.53859 1.71878,6.70169 4.34375,8.71875 l -4.4375,14.78125 c -1.25234,-0.31745 -2.5587,-0.5 -3.90625,-0.5 -3.39773,0 -6.55811,1.08239 -9.15625,2.90627 L 22.65625,981.33094 C 23.50716,979.86261 24,978.1675 24,976.36219 c 0,-5.48731 -4.51269,-10 -10,-10 -5.48732,0 -10,4.51269 -10,10 0,5.48731 4.51269,10 10,10 1.49431,0 2.90919,-0.33964 4.1875,-0.9375 l 14.4375,12.18747 c -1.6533,2.51714 -2.625,5.52994 -2.625,8.75004 0,3.3162 1.03648,6.4068 2.78125,8.9687 l -8.96875,8.9688 c -1.98522,-1.2322 -4.31937,-1.9375 -6.8125,-1.9375 -7.1441702,0 -13,5.8558 -13,13 0,7.1442 5.8558298,13 13,13 7.14417,0 13,-5.8558 13,-13 0,-2.499 -0.73123,-4.8243 -1.96875,-6.8125 L 37,1019.5809 c 2.56601,1.7536 5.6747,2.7813 9,2.7813 5.6305,0 10.58391,-2.9477 13.4375,-7.375 l 12.625,4.2187 c -0.0372,0.3817 -0.0625,0.7654 -0.0625,1.1563 0,6.5919 5.40812,12 12,12 6.59188,0 12,-5.4081 12,-12 0,-6.5919 -5.40812,-12 -12,-12 -4.08004,0 -7.70363,2.0767 -9.875,5.2187 l -12.40625,-4.125 C 61.91648,1008.4554 62,1007.4185 62,1006.3622 c 0,-1.3028 -0.1714,-2.5668 -0.46875,-3.7812 l 13.53125,-9.03134 c 1.80313,1.7423 4.25607,2.8125 6.9375,2.8125 5.48731,0 10,-4.51266 10,-9.99997 0,-5.48731 -4.51268,-10 -10,-10 -5.48731,0 -10,4.51269 -10,10 0,0.66435 0.0927,1.308 0.21875,1.9375 L 59,997.08096 c -0.9989,-1.3937 -2.21035,-2.6128 -3.59375,-3.625 l 4.53125,-15.15627 c 0.34825,0.0338 0.70593,0.0625 1.0625,0.0625 6.0396,0 11,-4.9604 11,-11 0,-6.0396 -4.9604,-11 -11,-11 z m 0,6 c 2.79696,0 5,2.20304 5,5 0,2.79696 -2.20304,5 -5,5 -2.79696,0 -5,-2.20304 -5,-5 0,-2.79696 2.20304,-5 5,-5 z m -47,10 c 2.24467,0 4,1.75533 4,4 0,2.24468 -1.75533,4 -4,4 -2.24469,0 -4.0000002,-1.75531 -4.0000002,-4 0,-2.24467 1.7553202,-4 4.0000002,-4 z m 68,10 c 2.24468,0 4,1.75533 4,4 0,2.24469 -1.75531,4 -4,4 -2.24467,0 -4,-1.75532 -4,-4 0,-2.24467 1.75533,-4 4,-4 z m -36,13.99997 c 5.55839,0 10,4.44164 10,10.00004 0,5.5584 -4.44161,10 -10,10 -5.55838,0 -10,-4.4416 -10,-10 0,-5.5584 4.44162,-10.00004 10,-10.00004 z m 38,18.00004 c 3.34924,0 6,2.6507 6,6 0,3.3492 -2.65076,6 -6,6 -3.34924,0 -6,-2.6508 -6,-6 0,-3.3493 2.65076,-6 6,-6 z m -67,14 c 3.90153,0 7,3.0985 7,7 0,3.9015 -3.09847,7 -7,7 -3.90153,0 -7.0000002,-3.0985 -7.0000002,-7 0,-3.9015 3.0984702,-7 7.0000002,-7 z" fill="#5F327C" fill-opacity="1" stroke="none" marker="none" visibility="visible" display="inline" overflow="visible"></path></g></svg>